<svg id="Layer_1" data-name="Layer 1" xmlns="http://www.w3.org/2000/svg" viewBox="0 0 1450.33 386.6"><defs><style>.cls-1{fill:#fff}</style></defs><path class="cls-1" d="M301.44 495.33l-4.71-.42a193.48 193.48 0 01-176.14-192.7c0-106.69 86.79-193.48 193.47-193.48s193.48 86.79 193.48 193.48a193.52 193.52 0 01-174 192.5l-4.75.48V291H375l-60.92-58.78L255.63 291h45.81zm12.62-377.95c-101.91 0-184.83 82.91-184.83 184.83a184.84 184.84 0 00163.56 183.61V299.68h-58L314 220.11l82.45 79.57h-59v185.89a184.9 184.9 0 00161.44-183.36c0-101.92-82.89-184.83-184.83-184.83zM800.6 302a122.68 122.68 0 01-10.8 51.47 119.39 119.39 0 01-30.07 40.67q-19.28 17-46.07 26.61t-58.8 9.64H599V173.64h55.9q32 0 58.8 9.64t46.07 26.61a119.49 119.49 0 0130.07 40.67A122.68 122.68 0 01800.6 302zm-17 0q0-27-10.6-48a111.16 111.16 0 00-28.14-35.66A123.86 123.86 0 00704.21 196a152.59 152.59 0 00-48.58-7.71h-39.71v227.47h39.71a152.31 152.31 0 0048.58-7.71 123.68 123.68 0 0040.68-22.36A111.05 111.05 0 00773 350q10.64-21 10.63-48zM967.93 173.64h18.12L902.38 324v106.42h-17V324l-83.62-150.36h18.12l74 134.94zM1321.08 430.42V173.64h17v256.78zM1567.83 193.69a137.15 137.15 0 00-28.72-7.71 194.11 194.11 0 00-29.88-2.31q-26.22 0-47.23 8.29a98.05 98.05 0 00-35.66 23.71 102.72 102.72 0 00-22.37 37.4q-7.71 22-7.71 49 0 27.38 7.71 49.16a103 103 0 0022.37 37.2A97.93 97.93 0 001462 412.1q21 8.29 47.23 8.29a194.11 194.11 0 0029.88-2.31 137.15 137.15 0 0028.72-7.71l3.09 13.88a120.74 120.74 0 01-29.11 8.09 212 212 0 01-33.74 2.7q-30.46 0-54.36-9.83a114.89 114.89 0 01-40.48-27.37 117.22 117.22 0 01-25.25-42q-8.68-24.48-8.68-53.78t8.68-53.59a119.46 119.46 0 0125.25-42 113.66 113.66 0 0140.48-27.57q23.89-9.84 54.36-9.83a212 212 0 0133.74 2.7 121.2 121.2 0 0129.11 8.09z" transform="translate(-120.59 -108.73)"/><path class="cls-1" d="M912.28 321.69V64.91h29.17l92.16 223.41 92.75-223.41h28v256.78h-19.83V87.65l-94.5 234.04h-13.42L929.78 87.65v234.04h-17.5z"/></svg>